<svg xmlns="http://www.w3.org/2000/svg" width="1633" height="576"><path fill="#fff" d="M568.4 42.43c.31-14.53 16.28-23.43 29.44-20.98-8.64 8.41-18.99 15.02-29.44 20.98"/><g fill="#e62925"><path fill-rule="evenodd" d="M253.49.47c61.53 0 123.05.05 184.58-.02.83 8.05.75 16.17.85 24.28-.05 180.98-.02 361.97 0 542.93-59.28.15-118.56.02-177.87.08.02-15.23.05-30.43-.03-45.65-23.32 26.68-55 46.63-90.45 51.68-36.99 5.14-77.52-.18-108.06-23.09-28.59-21.7-44.63-55.79-53.25-89.85-10.09-38.75-9.52-79.16-7.87-118.87 4.21-47.04 19.43-96.25 55.52-128.71 31.34-28.26 74.97-37.21 116.04-36.85 29.07 1.34 57.37 11.64 80.54 29.26-.03-68.4-.05-136.81 0-205.19m-43.11 328.25c-24.92 4.87-42.02 30.21-40.68 54.93 1.42 11.98 5.7 23.95 14.01 32.9 12.02 13.71 32.37 20.41 49.86 14.14 25.65-7.66 40.87-37.54 34.06-63.03-5.32-25.06-31.55-44.57-57.25-38.94"/><path d="M994.69 182c31.42-7.92 64.75-7.15 96.04.85 24.9 6.48 47.83 21.96 60.7 44.54 12.93 22.21 16.95 48.25 18.14 73.54.13 88.92.02 177.86.05 266.78-61.81.05-123.62 0-185.43.03-.03-73.44-.06-146.88.02-220.29.26-7.02-1.55-15.02-7.82-19.02-11.5-6.86-26.83-6.81-38.38-.12-6.37 3.99-8.15 12.12-7.95 19.17.03 73.41.03 146.85.03 220.26-61.81-.03-123.63 0-185.41 0-.03-127.5.02-254.99-.03-382.49 59.36-.05 118.75 0 178.11-.03-.05 15.74-.1 31.48 0 47.22 16.56-25.23 42.77-43.06 71.93-50.44"/><path fill-rule="evenodd" d="M1415.55 177.28c75.25-5.91 152.75 33.18 190.96 98.75 23.68 38.81 31.06 86.26 23.19 130.77-8.49 46.29-35.42 88.53-72.7 117.04-36.94 28.78-83.82 43.95-130.54 43.59-37.35-.85-74.71-10.92-106.57-30.66-40.86-24.61-72.72-64.27-86.58-110.05-14.08-45.1-9.8-95.4 11.25-137.69 31.4-64.48 99.58-108.24 170.99-111.75m-.28 143.75c-23.32 5.57-42.18 27.63-41.33 52.04.2 27.56 25.36 51.1 52.52 51.53 23.5 1.58 47.37-13.59 54.69-36.22 8.96-22.58-2.94-49.96-23.81-61.34-12.51-7.71-27.96-8.93-42.07-6.01"/><path d="M501.59 186.64c6.16.49 13.62-1 18.13 4.42 35.35 35.32 96.33 39.17 136.55 9.96 5.39-3.8 9.67-8.98 15.17-12.67 5.11-.8 10.32-.44 15.5-.42-.1 126.6-.02 253.16-.05 379.73-61.84.18-123.67-.03-185.51.1.1-127.03-.28-254.09.21-381.12"/></g><path fill="#0f9a49" fill-rule="evenodd" d="M610.43 3.8c40.11-5.47 82.83 17.8 97.87 55.81 10.86 26.94 7.36 59.48-10.08 82.88-22.99 32.41-67.93 46.3-105.41 33.6-24.2-7.66-45.28-25.44-55.73-48.74-11.14-23.9-10.08-53.11 2.71-76.15C553.8 25.11 581.2 7.33 610.43 3.8M568.4 42.43c10.45-5.96 20.8-12.57 29.44-20.98-13.16-2.45-29.13 6.45-29.44 20.98"/></svg>